<?xml version="1.0" encoding="utf-8"?>
<!-- Generator: Adobe Illustrator 15.0.0, SVG Export Plug-In . SVG Version: 6.00 Build 0)  -->
<!DOCTYPE svg PUBLIC "-//W3C//DTD SVG 1.1//EN" "http://www.w3.org/Graphics/SVG/1.1/DTD/svg11.dtd">
<svg version="1.1" id="Layer_1" xmlns="http://www.w3.org/2000/svg" xmlns:xlink="http://www.w3.org/1999/xlink" x="0px" y="0px"
	 width="113.75px" height="23px" viewBox="0 0 113.75 23" enable-background="new 0 0 113.75 23" xml:space="preserve">
<g>
	<defs>
		<rect id="SVGID_1_" x="-19.75" y="-19.285" width="154.41" height="61.285"/>
	</defs>
	<clipPath id="SVGID_2_">
		<use xlink:href="#SVGID_1_"  overflow="visible"/>
	</clipPath>
	<path clip-path="url(#SVGID_2_)" fill="#E70641" d="M12.092,1.066c6.082,0.519,12.793,3.606,16.618,7.992
		c4.902,5.614,3.215,11.229-3.769,12.541c-6.982,1.314-16.615-2.176-21.516-7.79C-0.324,9.511-0.215,5.213,3.169,2.845
		l19.411,14.339L12.092,1.066z"/>
	<path clip-path="url(#SVGID_2_)" fill="#231F20" d="M108.006,21.564l-2.437-9.804c-0.352-1.164-0.486-2.33-0.732-3.493h-0.055
		c-0.215,1.191-0.297,2.355-0.621,3.546l-2.466,9.751h-4.223l5.66-20.42h3.303l5.905,20.42H108.006z"/>
	<path clip-path="url(#SVGID_2_)" fill="#231F20" d="M43.542,1.145l2.439,9.804c0.351,1.164,0.486,2.328,0.731,3.494h0.053
		c0.215-1.192,0.299-2.358,0.624-3.549l2.463-9.749h4.225l-5.658,20.42h-3.306L39.21,1.145H43.542z"/>
	<rect x="57.109" y="1.145" clip-path="url(#SVGID_2_)" fill="#231F20" width="4.038" height="20.42"/>
	<polygon clip-path="url(#SVGID_2_)" fill="#231F20" points="83.961,1.145 85.938,13.195 85.99,13.195 87.612,1.145 93.031,1.145 
		95.173,21.564 91.028,21.564 90.053,6.859 89.999,6.859 89.348,11.896 87.612,21.564 84.501,21.564 82.523,11.786 81.845,7.237 
		81.845,6.859 81.793,6.859 81.197,21.564 76.862,21.564 78.65,1.145 	"/>
	<path clip-path="url(#SVGID_2_)" fill="#231F20" d="M71.152,1.145c-0.693,0.487-1.227,1.336-1.585,2.206
		c-1.057,2.544,0.076,4.5,1.073,6.224c0.146,0.253,0.298,0.511,0.438,0.768c2.177,3.736,3.041,6.488,1.414,10.409
		c-0.116,0.279-0.385,0.804-0.385,0.804h-4.863c0.551-0.437,1.156-1.135,1.484-1.928c1.117-2.694-0.2-5.157-1.476-7.542
		c-1.533-2.868-3.119-5.834-1.437-9.899c0.16-0.384,0.509-1.041,0.509-1.041H71.152z"/>
</g>
</svg>
